<svg xmlns="http://www.w3.org/2000/svg" version="1.1" xmlns:xlink="http://www.w3.org/1999/xlink" xmlns:svgjs="http://svgjs.dev/svgjs" width="1500" height="1500" viewBox="0 0 1500 1500"><rect width="1500" height="1500" fill="#ffffff"></rect><g transform="matrix(0.6666666666666666,0,0,0.6666666666666666,249.39393939393938,614.7718221277313)"><svg viewBox="0 0 396 107" data-background-color="#ffffff" preserveAspectRatio="xMidYMid meet" height="405" width="1500" xmlns="http://www.w3.org/2000/svg" xmlns:xlink="http://www.w3.org/1999/xlink"><g id="tight-bounds" transform="matrix(1,0,0,1,0.2400000000000091,0.15341854397198063)"><svg viewBox="0 0 395.52 106.74463664060137" height="106.74463664060137" width="395.52"><g><svg viewBox="0 0 620.8174271524591 167.54887409370517" height="106.74463664060137" width="395.52"><g><rect width="6.841893711739125" height="145.48382699887566" x="200.54481691784272" y="11.032523547414755" fill="#6936f5" opacity="1" stroke-width="0" stroke="transparent" fill-opacity="1" class="rect-yte-0" data-fill-palette-color="primary" rx="1%" id="yte-0" data-palette-color="#6936f5"></rect></g><g transform="matrix(1,0,0,1,225.29742715245914,23.156175797321055)"><svg viewBox="0 0 395.52 121.23652249906306" height="121.23652249906306" width="395.52"><g id="textblocktransform"><svg viewBox="0 0 395.52 121.23652249906306" height="121.23652249906306" width="395.52" id="textblock"><g><svg viewBox="0 0 395.52 75.86843441466854" height="75.86843441466854" width="395.52"><g transform="matrix(1,0,0,1,0,0)"><svg width="395.52" viewBox="1.05 -37 248.13 47.6" height="75.86843441466854" data-palette-color="#6936f5"><path d="M20.45-29.65L20.45-29.65Q18.3-30.7 15.4-30.7 12.5-30.7 10.85-30.45L10.85-30.45Q10.35-27.05 10.35-18.3L10.35-18.3Q12.5-17.9 14.55-17.9L14.55-17.9Q18.45-17.9 19.5-20.05L19.5-20.05 20.5-19.85Q20.05-18.25 20.05-16.03 20.05-13.8 20.35-11.65L20.35-11.65 19.2-11.45Q18.45-13.35 18.2-15.9L18.2-15.9Q16.35-16.05 14.35-16.05 12.35-16.05 10.35-15.8L10.35-15.8Q10.4-5.6 11-1.75L11-1.75Q13.5-1.5 16.5-0.8L16.5-0.8 16.35 0.4Q12.65 0 8.33 0 4 0 1.35 0.4L1.35 0.4 1.15-0.85Q3.4-1.55 5.95-1.9L5.95-1.9Q6.5-6 6.5-14.8L6.5-14.8 6.5-17.75Q6.5-23.25 5.85-30.65L5.85-30.65Q3.85-30.9 1.05-31.8L1.05-31.8 1.25-33.05Q6.45-32.55 13.2-32.55 19.95-32.55 24.9-33.1L24.9-33.1 25.1-32.1Q22.5-29.45 22.15-24.2L22.15-24.2 20.9-24.2Q20.45-26.35 20.45-29.65ZM32.25-8.95L32.25-8.95Q32.25-3.35 34.55-3.35L34.55-3.35Q36.5-3.35 39.15-5.8 41.8-8.25 42.7-10.35L42.7-10.35Q42.7-17.6 42.15-22L42.15-22Q40.8-22.3 39-22.95L39-22.95 39.1-23.9Q41.9-23.5 44.4-23.5 46.9-23.5 49.45-23.8L49.45-23.8 49.6-22.85Q48.1-22.2 46.65-21.85L46.65-21.85Q46.2-18.45 46.2-14L46.2-14 46.2-9.8Q46.2-5.2 46.55-1.65L46.55-1.65Q47.75-1.25 49.25-1.25L49.25-1.25 49.25-0.2Q46.05-0.05 42.5 0.75L42.5 0.75 42.15 0.65Q42.7-2.8 42.7-7.25L42.7-7.25 42.5-7.3Q40.8-4.95 38.07-2.48 35.35 0 33.15 0.75L33.15 0.75Q30.1 0.75 29.2-2L29.2-2Q28.6-3.95 28.6-6.8L28.6-6.8Q28.6-7.25 28.6-7.8L28.6-7.8 28.85-21.85Q27.65-22.25 26.15-22.25L26.15-22.25 26.15-23.3Q29.35-23.45 32.9-24.25L32.9-24.25 33.25-24.05Q32.45-19.2 32.3-10.05L32.3-10.05Q32.25-9.55 32.25-8.95ZM65.05-0.55L64.95 0.4Q62.4 0 59.4 0 56.4 0 53.55 0.3L53.55 0.3 53.4-0.65Q54.9-1.3 56.35-1.65L56.35-1.65Q56.8-5.05 56.8-9.5L56.8-9.5 56.8-13.7Q56.8-18.3 56.45-21.85L56.45-21.85Q55.25-22.25 53.75-22.25L53.75-22.25 53.75-23.3Q56.95-23.45 60.5-24.25L60.5-24.25 60.85-24.05Q60.3-20.6 60.3-16.25L60.3-16.25 60.5-16.2Q61.2-18.2 63.07-20.83 64.95-23.45 66.55-24.25L66.55-24.25Q68.8-24.25 70.95-23.45L70.95-23.45 70.95-22.75Q69.05-20.35 68.8-16.5L68.8-16.5 67.7-16.5Q67.7-18.45 67.59-19.55L67.59-19.55Q66.95-20.05 65.9-20.05L65.9-20.05Q64.4-20.05 62.72-17.68 61.05-15.3 60.3-13.15L60.3-13.15Q60.3-5.9 60.85-1.5L60.85-1.5Q63.35-1.15 65.05-0.55L65.05-0.55ZM89.79-14.55L89.79-14.55Q89.79-20.15 87.49-20.15L87.49-20.15Q85.54-20.15 82.89-17.7 80.24-15.25 79.34-13.15L79.34-13.15Q79.34-5.9 79.89-1.5L79.89-1.5Q81.24-1.2 83.04-0.55L83.04-0.55 82.94 0.4Q80.14 0 77.64 0 75.14 0 72.59 0.3L72.59 0.3 72.44-0.65Q73.94-1.3 75.39-1.65L75.39-1.65Q75.84-5.05 75.84-9.5L75.84-9.5 75.84-13.7Q75.84-18.3 75.49-21.85L75.49-21.85Q74.29-22.25 72.79-22.25L72.79-22.25 72.79-23.3Q75.99-23.45 79.54-24.25L79.54-24.25 79.89-24.05Q79.34-20.6 79.34-16.25L79.34-16.25 79.54-16.2Q81.24-18.55 83.97-21.03 86.69-23.5 88.89-24.25L88.89-24.25Q91.94-24.25 92.84-21.5L92.84-21.5Q93.44-19.55 93.44-16.7L93.44-16.7Q93.44-16.25 93.44-15.7L93.44-15.7 93.19-1.65Q94.64-1.3 96.14-0.65L96.14-0.65 95.99 0.3Q93.59 0 91.92 0 90.24 0 88.74 0.1L88.74 0.1 88.74-0.6Q89.54-4.5 89.74-13.45L89.74-13.45Q89.79-13.95 89.79-14.55ZM107.39-13.7L107.39-13.7 107.39-9.5Q107.39-4.1 107.74-1.5L107.74-1.5Q109.14-1.2 110.89-0.55L110.89-0.55 110.79 0.4Q107.99 0 105.49 0 102.99 0 100.44 0.3L100.44 0.3 100.29-0.65Q101.79-1.3 103.24-1.65L103.24-1.65Q103.69-5.05 103.69-9.5L103.69-9.5 103.69-13.7Q103.69-17.75 103.29-21.8L103.29-21.8Q101.99-22.2 100.59-22.2L100.59-22.2 100.59-23.25Q104.44-23.5 107.69-24.25L107.69-24.25 108.04-24.05Q107.39-20.2 107.39-13.7ZM108.29-31L108.29-31Q107.94-30.35 107.07-29.35 106.19-28.35 105.59-27.95L105.59-27.95Q104.99-28.35 104.12-29.35 103.24-30.35 102.89-31L102.89-31Q103.19-31.6 104.04-32.38 104.89-33.15 105.59-33.5L105.59-33.5Q106.24-33.1 107.09-32.33 107.94-31.55 108.29-31ZM117.89-8.3L117.94-6.5 118.04-4.5 118.04-4.35Q120.89-3.2 123.74-3.2 126.59-3.2 128.26-4.53 129.94-5.85 129.94-8.4L129.94-8.4Q129.94-9.9 127.79-11.78 125.64-13.65 123.04-15.15 120.44-16.65 118.29-18.57 116.14-20.5 116.14-22.1L116.14-22.1Q116.14-25.6 119.36-28.88 122.59-32.15 126.44-33.3L126.44-33.3Q130.74-33.3 134.59-32.45L134.59-32.45 134.59-31.45Q131.99-29.05 131.69-24.05L131.69-24.05 130.44-24.05Q130.44-26.7 130.19-28.7L130.19-28.7Q128.04-29.7 125.41-29.7 122.79-29.7 121.14-28.6 119.49-27.5 119.49-25.45L119.49-25.45Q119.49-23.95 121.64-22.1 123.79-20.25 126.36-18.78 128.94-17.3 131.09-15.4 133.24-13.5 133.24-11.9L133.24-11.9Q133.24-8.25 130.01-4.5 126.79-0.75 122.99 0.75L122.99 0.75Q119.04 0.75 115.64-0.15L115.64-0.15Q114.59 0.35 113.54 1.35L113.54 1.35 112.79 0.65Q116.24-3 116.64-9L116.64-9 117.89-9 117.89-8.3ZM158.64-14.7L158.64-14.7Q158.64-9.5 155.84-5.18 153.04-0.85 148.34 0.75L148.34 0.75Q145.64 0.75 143.44 0.25L143.44 0.25Q143.44 5.7 143.79 8.3L143.79 8.3Q146.04 8.85 147.74 9.6L147.74 9.6 147.59 10.6Q144.49 10 142.36 10 140.24 10 137.39 10.25L137.39 10.25 137.19 9.25Q138.69 8.9 139.74 8.35L139.74 8.35Q140.24 4.05 140.24-5.7L140.24-5.7 140.24-13.85Q140.24-18.95 139.89-21.85L139.89-21.85Q138.69-22.25 137.19-22.25L137.19-22.25 137.19-23.3Q140.39-23.45 143.94-24.25L143.94-24.25 144.29-24.05Q143.74-20.6 143.74-16.25L143.74-16.25 143.94-16.2Q145.69-18.7 148.09-21.05 150.49-23.4 152.64-24.25L152.64-24.25Q155.39-24.25 157.01-21.2 158.64-18.15 158.64-14.7ZM154.64-12.45L154.64-12.45Q154.64-14.9 153.76-17.53 152.89-20.15 151.24-20.15L151.24-20.15Q149.49-20.15 146.99-17.65 144.49-15.15 143.74-13.15L143.74-13.15Q143.74-5.7 144.09-3.55L144.09-3.55Q146.74-2.35 149.21-2.35 151.69-2.35 152.99-3.55L152.99-3.55Q154.64-7.35 154.64-12.45ZM180.38-14.55L180.38-14.55Q180.38-20.15 178.08-20.15L178.08-20.15Q176.13-20.15 173.48-17.7 170.83-15.25 169.93-13.15L169.93-13.15Q169.93-5.9 170.48-1.5L170.48-1.5Q171.83-1.2 173.63-0.55L173.63-0.55 173.53 0.4Q170.73 0 168.23 0 165.73 0 163.18 0.3L163.18 0.3 163.03-0.65Q164.53-1.3 165.98-1.65L165.98-1.65Q166.43-5.05 166.43-9.5L166.43-9.5 166.43-18.8Q166.43-31.95 165.23-36.7L165.23-36.7 166.28-37Q166.73-35.4 167.43-34.35L167.43-34.35Q170.18-34.8 172.78-35.55L172.78-35.55 173.03-34.65Q172.08-33.9 170.68-33.2L170.68-33.2Q169.93-29.1 169.93-16.25L169.93-16.25 170.13-16.2Q171.83-18.55 174.56-21.03 177.28-23.5 179.48-24.25L179.48-24.25Q182.53-24.25 183.43-21.5L183.43-21.5Q184.03-19.55 184.03-16.7L184.03-16.7Q184.03-16.25 184.03-15.7L184.03-15.7 183.78-1.65Q184.98-1.25 186.48-1.25L186.48-1.25 186.48-0.2Q183.28-0.05 179.73 0.75L179.73 0.75 179.38 0.55Q180.18-4.3 180.33-13.45L180.33-13.45Q180.38-13.95 180.38-14.55ZM200.13-2.85L200.13-2.85Q203.28-2.85 206.28-5.5L206.28-5.5 206.83-5Q203.98-1.1 199.53 0.75L199.53 0.75Q195.13 0.75 192.93-2 190.73-4.75 190.73-9.65 190.73-14.55 193.48-18.78 196.23-23 200.83-24.25L200.83-24.25Q204.18-24.25 205.53-22.93 206.88-21.6 206.88-18.25L206.88-18.25Q206.88-16.35 206.38-15L206.38-15Q207.43-14.6 208.83-14.6L208.83-14.6 208.78-13.55Q208.48-13.55 208.13-13.55L208.13-13.55Q202.53-13.55 194.73-11.9L194.73-11.9Q194.73-5.25 197.33-3.6L197.33-3.6Q198.43-2.85 200.13-2.85ZM202.88-15.25Q202.88-18.55 202.26-19.85 201.63-21.15 199.63-21.15 197.63-21.15 196.18-19.95L196.18-19.95Q194.83-17.15 194.73-13.2L194.73-13.2Q198.83-14.55 202.88-15.25L202.88-15.25ZM223.08-0.55L222.98 0.4Q220.43 0 217.43 0 214.43 0 211.58 0.3L211.58 0.3 211.43-0.65Q212.93-1.3 214.38-1.65L214.38-1.65Q214.83-5.05 214.83-9.5L214.83-9.5 214.83-13.7Q214.83-18.3 214.48-21.85L214.48-21.85Q213.28-22.25 211.78-22.25L211.78-22.25 211.78-23.3Q214.98-23.45 218.53-24.25L218.53-24.25 218.88-24.05Q218.33-20.6 218.33-16.25L218.33-16.25 218.53-16.2Q219.23-18.2 221.1-20.83 222.98-23.45 224.58-24.25L224.58-24.25Q226.83-24.25 228.98-23.45L228.98-23.45 228.98-22.75Q227.08-20.35 226.83-16.5L226.83-16.5 225.73-16.5Q225.73-18.45 225.63-19.55L225.63-19.55Q224.98-20.05 223.93-20.05L223.93-20.05Q222.43-20.05 220.75-17.68 219.08-15.3 218.33-13.15L218.33-13.15Q218.33-5.9 218.88-1.5L218.88-1.5Q221.38-1.15 223.08-0.55L223.08-0.55ZM240.48-2.85L240.48-2.85Q243.63-2.85 246.63-5.5L246.63-5.5 247.18-5Q244.33-1.1 239.88 0.75L239.88 0.75Q235.48 0.75 233.28-2 231.08-4.75 231.08-9.65 231.08-14.55 233.83-18.78 236.58-23 241.18-24.25L241.18-24.25Q244.53-24.25 245.88-22.93 247.23-21.6 247.23-18.25L247.23-18.25Q247.23-16.35 246.73-15L246.73-15Q247.78-14.6 249.18-14.6L249.18-14.6 249.13-13.55Q248.83-13.55 248.48-13.55L248.48-13.55Q242.88-13.55 235.08-11.9L235.08-11.9Q235.08-5.25 237.68-3.6L237.68-3.6Q238.78-2.85 240.48-2.85ZM243.23-15.25Q243.23-18.55 242.6-19.85 241.98-21.15 239.98-21.15 237.98-21.15 236.53-19.95L236.53-19.95Q235.18-17.15 235.08-13.2L235.08-13.2Q239.18-14.55 243.23-15.25L243.23-15.25Z" opacity="1" transform="matrix(1,0,0,1,0,0)" fill="#6936f5" class="wordmark-text-0" data-fill-palette-color="primary" id="text-0"></path></svg></g></svg></g><g transform="matrix(1,0,0,1,0,93.77915093754584)"><svg viewBox="0 0 232.20979200000002 27.45737156151722" height="27.45737156151722" width="232.20979200000002"><g transform="matrix(1,0,0,1,0,0)"><svg width="232.20979200000002" viewBox="-0.1 -38.11 433.14000000000004 51.22" height="27.45737156151722" data-palette-color="#6936f5"><path d="M27.66-2.29L23.9-11.84 11.01-11.84 7.45-2.29 11.55-1 11.55 0-0.1 0-0.1-1 4.15-2.76 16.89-36.01 19.14-36.01 32.2-2.76 36.21-1 36.21 0 23.71 0 23.71-1 27.66-2.29ZM17.46-28.54L17.26-28.54 12.01-14.45 22.9-14.45 17.46-28.54ZM52.68-25.9L52.68-36.01 53.44-36.65 58.08-36.01 77.34-36.01 81.98-36.65 82.73-36.01 82.73-25.9 81.73-25.9 78.68-33.35 70.19-33.69 70.19-2.76 74.68-1 74.68 0 61.45 0 61.45-1 65.69-2.76 65.69-33.69 56.88-33.3 53.68-25.9 52.68-25.9ZM97.18-25.61L97.18-25.61Q99.97-25.61 102.19-24.66 104.41-23.71 105.95-21.98 107.49-20.26 108.31-17.85 109.12-15.43 109.12-12.5L109.12-12.5Q109.12-9.59 108.32-7.18 107.51-4.76 105.97-3.03 104.44-1.29 102.21-0.34 99.99 0.61 97.18 0.61L97.18 0.61Q94.35 0.61 92.13-0.34 89.91-1.29 88.37-3.03 86.83-4.76 86.03-7.17 85.22-9.57 85.22-12.5L85.22-12.5Q85.22-15.43 86.04-17.85 86.86-20.26 88.4-21.98 89.93-23.71 92.16-24.66 94.38-25.61 97.18-25.61ZM91.86-20.43L91.86-20.43Q89.98-17.38 89.98-12.5L89.98-12.5Q89.98-10.08 90.46-8.07 90.93-6.05 91.85-4.6 92.77-3.15 94.11-2.34 95.45-1.54 97.18-1.54L97.18-1.54Q98.92-1.54 100.29-2.34 101.65-3.15 102.59-4.6 103.53-6.05 104.03-8.07 104.53-10.08 104.53-12.5L104.53-12.5Q104.53-14.89 104.03-16.91 103.53-18.92 102.59-20.37 101.65-21.83 100.29-22.64 98.92-23.46 97.18-23.46L97.18-23.46Q93.72-23.46 91.86-20.43ZM116.62-21.09L112.12-22.85 112.12-23.85 120.62-25.61 121.11-25.1 121.11-8.84Q121.11-5.35 122.33-3.97 123.55-2.59 126.41-2.59L126.41-2.59Q129.78-2.59 132.31-4.71L132.31-4.71 132.31-21.09 127.82-22.85 127.82-23.85 136.32-25.61 136.81-25.1 136.81-3.39 141.32-2.15 141.32-1.25 132.83 0.61 132.31 0.1 132.31-2.81Q130.63-1.2 128.41-0.29 126.19 0.61 123.96 0.61L123.96 0.61Q122.5 0.61 121.21 0.15 119.91-0.32 118.87-1.26 117.84-2.2 117.23-3.76 116.62-5.32 116.62-7.35L116.62-7.35 116.62-21.09ZM156.6 0.61L156.6 0.61Q154.31 0.61 152.22-0.33 150.13-1.27 148.55-2.94 146.96-4.61 146.01-7.1 145.06-9.59 145.06-12.5L145.06-12.5Q145.06-15.65 146.01-18.19 146.96-20.73 148.63-22.34 150.3-23.95 152.48-24.8 154.65-25.66 157.17-25.66L157.17-25.66Q160.75-25.66 164.22-24.05L164.22-24.05 164.22-16.5 163.22-16.5 160.51-23.05Q159.05-23.39 157.6-23.39L157.6-23.39Q153.77-23.39 151.94-20.56 150.11-17.72 150.11-12.5L150.11-12.5Q150.11-7.52 152.53-4.86 154.94-2.2 159.17-2.2L159.17-2.2Q160.61-2.2 161.77-2.58 162.93-2.95 164.61-3.91L164.61-3.91 165.37-2.34Q163.2-0.63 161.17-0.01 159.14 0.61 156.6 0.61ZM177.87-2.76L182.11-1 182.11 0 168.86 0 168.86-1 173.37-2.76 173.37-33.59 168.86-35.35 168.86-36.35 177.38-38.11 177.87-37.6 177.87-22.14Q179.57-23.75 181.89-24.68 184.21-25.61 186.46-25.61L186.46-25.61Q189.76-25.61 191.92-23.61 194.08-21.61 194.08-17.65L194.08-17.65 194.08-2.76 198.57-1 198.57 0 185.31 0 185.31-1 189.56-2.76 189.56-16.16Q189.56-19.68 188.32-21.04 187.07-22.41 184.02-22.41L184.02-22.41Q180.38-22.41 177.87-20.24L177.87-20.24 177.87-2.76ZM235.67 1L235.67 1Q230.96 1 227.26-1.28 223.56-3.56 221.44-7.89 219.32-12.21 219.32-17.9L219.32-17.9Q219.32-22.14 220.65-25.77 221.98-29.39 224.28-31.86 226.59-34.33 229.69-35.72 232.79-37.11 236.31-37.11L236.31-37.11Q239.8-37.11 242.79-35.73 245.78-34.35 247.93-31.88 250.08-29.42 251.3-25.82 252.52-22.22 252.52-17.94L252.52-17.94Q252.52-13.7 251.19-10.11 249.86-6.52 247.59-4.1 245.32-1.68 242.23-0.34 239.14 1 235.67 1ZM235.97-34.35L235.97-34.35Q232.55-34.35 229.95-32.24 227.35-30.13 225.96-26.4 224.56-22.68 224.56-17.9L224.56-17.9Q224.56-10.62 227.69-6.14 230.81-1.66 235.97-1.66L235.97-1.66Q241.04-1.66 244.16-6.18 247.27-10.69 247.27-17.94L247.27-17.94Q247.27-25.22 244.15-29.79 241.02-34.35 235.97-34.35ZM274.27-23.1L266.53-21.61 266.53-2.76 272.78-1 272.78 0 257.52 0 257.52-1 262.01-2.76 262.01-21.51 257.28-22.85 257.28-23.85 262.01-24.85 262.01-27.34Q262.01-29.96 262.94-32.06 263.87-34.16 265.42-35.45 266.97-36.74 268.91-37.43 270.85-38.11 272.98-38.11L272.98-38.11Q273.73-38.11 275-37.92 276.27-37.72 276.93-37.45L276.93-37.45 276.93-30 275.93-30 272.46-35.84Q270.34-35.84 268.98-34.77 267.63-33.69 267.08-31.97 266.53-30.25 266.53-27.86L266.53-27.86 266.53-24.85 273.42-24.85 274.27-24.56 274.27-23.1ZM315.3-7.69L326-36.01 335.76-36.01 335.76-35.01 331.52-33.25 331.52-2.76 336.01-1 336.01 0 323.75 0 323.75-1 327.66-2.76 327.66-30.76 327.37-30.76 315.87 0 313.4 0 302.41-30.86 302.17-30.86 302.17-3 306.15-1 306.15 0 294.65 0 294.65-1 298.9-3 298.9-33.25 294.41-35.01 294.41-36.01 306.05-36.01 306.15-33.69 315.11-7.69 315.3-7.69ZM359.49-3.39L364.01-2.15 364.01-1.25 358.71 0.39Q357.15 0.73 356.07 0.04 355-0.66 355-2.34L355-2.34Q351.83 0.61 347.55 0.61L347.55 0.61Q344.01 0.61 342.26-1.22 340.5-3.05 340.5-5.81L340.5-5.81Q340.5-7.89 341.43-9.48 342.35-11.08 343.79-12.04 345.23-12.99 347.24-13.62 349.24-14.26 351.09-14.5 352.95-14.75 355-14.79L355-14.79 355-17.14Q355-20.56 353.93-21.9 352.85-23.24 350.36-23.24L350.36-23.24Q348.48-23.24 345.94-22.66L345.94-22.66 343.35-16.99 342.16-16.99 342.16-23.95Q344.35-24.73 346.8-25.17 349.24-25.61 351.09-25.61L351.09-25.61Q355.12-25.61 357.31-23.99 359.49-22.36 359.49-18.65L359.49-18.65 359.49-3.39ZM349.6-2.25L349.6-2.25Q351-2.25 352.46-2.92 353.93-3.59 355-4.76L355-4.76 355-12.79Q350.12-12.57 347.55-10.8 344.99-9.03 344.99-6.3L344.99-6.3Q344.99-4.2 346.33-3.22 347.68-2.25 349.6-2.25ZM374.09 0.95L374.09 0.95Q371.7 2.42 371.7 5.59L371.7 5.59Q371.7 7.03 372.4 8 373.11 8.96 374.21 9.53 375.31 10.11 376.65 10.35 377.99 10.6 379.24 10.6L379.24 10.6Q380.53 10.6 381.84 10.34 383.15 10.08 384.18 9.58 385.22 9.08 385.88 8.34 386.54 7.59 386.54 6.59L386.54 6.59Q386.54 5.05 385.77 4.13 385 3.2 383.68 2.65 382.36 2.1 380.58 1.83 378.8 1.56 376.77 1.34L376.77 1.34Q375.92 1.25 375.25 1.15 374.58 1.05 374.09 0.95ZM379-6.81L379-6.81Q376.48-6.81 374.38-7.59L374.38-7.59Q372.84-6.57 372.84-5L372.84-5Q372.84-4.1 373.88-3.56 374.92-3.03 376.58-2.8 378.24-2.56 380.24-2.37 382.24-2.17 384.24-1.76 386.25-1.34 387.91-0.62 389.57 0.1 390.6 1.55 391.64 3 391.64 5.1L391.64 5.1Q391.64 6.79 390.84 8.18 390.03 9.57 388.72 10.46 387.42 11.35 385.66 11.96 383.9 12.57 382.08 12.84 380.27 13.11 378.39 13.11L378.39 13.11Q373.14 13.11 370.18 11.29 367.23 9.47 367.23 6.54L367.23 6.54Q367.23 2.32 371.89 0.39L371.89 0.39Q368.99-0.59 368.99-3.25L368.99-3.25Q368.99-6.37 372.79-8.45L372.79-8.45Q370.67-9.74 369.54-11.82 368.4-13.89 368.4-16.21L368.4-16.21Q368.4-17.99 369.11-19.67 369.82-21.34 371.12-22.67 372.43-24 374.48-24.8 376.53-25.61 379-25.61L379-25.61Q381.14-25.61 382.93-25L382.93-25 392.74-25 392.74-24 387.39-22.09Q389.59-19.53 389.59-16.21L389.59-16.21Q389.59-14.43 388.87-12.76 388.15-11.08 386.84-9.75 385.54-8.42 383.5-7.62 381.46-6.81 379-6.81ZM373.48-16.21L373.48-16.21Q373.48-12.87 374.94-11.08 376.41-9.3 379-9.3L379-9.3Q381.56-9.3 383.02-11.1 384.49-12.89 384.49-16.21L384.49-16.21Q384.49-19.53 383.02-21.31 381.56-23.1 379-23.1L379-23.1Q376.41-23.1 374.94-21.31 373.48-19.53 373.48-16.21ZM404.51-2.76L409-1 409 0 395.5 0 395.5-1 399.99-2.76 399.99-21.09 395.5-22.85 395.5-23.85 403.99-25.61 404.51-25.1 404.51-2.76ZM398.35-32.96L398.35-32.96Q398.35-34.23 399.24-35.12 400.14-36.01 401.45-36.01L401.45-36.01Q402.72-36.01 403.61-35.12 404.51-34.23 404.51-32.96L404.51-32.96Q404.51-31.64 403.61-30.75 402.72-29.86 401.45-29.86L401.45-29.86Q400.14-29.86 399.24-30.75 398.35-31.64 398.35-32.96ZM424.28 0.61L424.28 0.61Q421.98 0.61 419.9-0.33 417.81-1.27 416.22-2.94 414.64-4.61 413.68-7.1 412.73-9.59 412.73-12.5L412.73-12.5Q412.73-15.65 413.68-18.19 414.64-20.73 416.31-22.34 417.98-23.95 420.15-24.8 422.33-25.66 424.84-25.66L424.84-25.66Q428.43-25.66 431.9-24.05L431.9-24.05 431.9-16.5 430.9-16.5 428.19-23.05Q426.72-23.39 425.28-23.39L425.28-23.39Q421.45-23.39 419.62-20.56 417.78-17.72 417.78-12.5L417.78-12.5Q417.78-7.52 420.2-4.86 422.62-2.2 426.84-2.2L426.84-2.2Q428.28-2.2 429.44-2.58 430.6-2.95 432.29-3.91L432.29-3.91 433.04-2.34Q430.87-0.63 428.84-0.01 426.82 0.61 424.28 0.61Z" opacity="1" transform="matrix(1,0,0,1,0,0)" fill="#6936f5" class="slogan-text-1" data-fill-palette-color="secondary" id="text-1"></path></svg></g></svg></g></svg></g></svg></g><g><svg viewBox="0 0 182.63410039496543 167.54887409370517" height="167.54887409370517" width="182.63410039496543"><g><svg xmlns="http://www.w3.org/2000/svg" version="1.1" data-icon="home" viewBox="0.26403831549770007 0.156 31.44096324303679 28.844" x="0" y="0" height="167.54887409370517" width="182.63410039496543" class="icon-icon-0" data-fill-palette-color="accent" id="icon-0"><path d="M15.938 0.156A0.5 0.5 0 0 0 15.594 0.312L0.406 14.687C0.206 14.787 0.2 15 0.5 15H2.5C2.8 15 3.206 14.787 3.406 14.687L15.687 3.312C15.887 3.112 16.206 3.112 16.406 3.312L28.594 14.593C28.794 14.693 29.2 14.906 29.5 14.906H31.5C31.7 14.906 31.794 14.793 31.594 14.593L16.313 0.312A0.56 0.56 0 0 0 15.938 0.156M16.063 5.156A0.56 0.56 0 0 0 15.688 5.312L5.407 14.687C5.207 14.787 5.001 15.199 5.001 15.5V29H14.001V23H18.001V29H27.001V15.5C27.001 15.2 26.795 14.787 26.595 14.687L21.501 9.999 16.22 5.186C16.209 5.181 16.2 5.19 16.189 5.186 16.14 5.17 16.114 5.155 16.064 5.155z" fill="#6936f5" data-fill-palette-color="accent"></path></svg></g></svg></g></svg></g><defs></defs></svg><rect width="395.52" height="106.74463664060137" fill="none" stroke="none" visibility="hidden"></rect></g></svg></g></svg>